<svg width="30" height="30" viewBox="0 0 30 30" fill="none" xmlns="http://www.w3.org/2000/svg">
<rect width="30" height="30" rx="7" fill="#FF3B30"/>
<path d="M19.084 11.9688C17.4985 11.9688 16.2036 10.6738 16.2036 9.09668C16.2036 7.51123 17.4985 6.21631 19.084 6.21631C20.6528 6.21631 21.9644 7.51123 21.9644 9.09668C21.9644 10.6738 20.6528 11.9688 19.084 11.9688ZM8.41748 20.4189C7.62891 20.4189 7.16406 20.0205 7.16406 19.4146C7.16406 18.5845 8.00244 17.8374 8.72461 17.0986C9.27246 16.5259 9.42188 15.3472 9.48828 14.3926C9.54639 11.2051 10.3931 9.01367 12.6011 8.2168C12.9082 7.12939 13.7715 6.27441 14.9917 6.27441C15.3735 6.27441 15.7222 6.35742 16.021 6.50684C15.4316 7.2041 15.0664 8.10889 15.0664 9.09668C15.0664 11.2964 16.876 13.106 19.0757 13.106C19.5488 13.106 19.9971 13.0146 20.4121 12.8486C20.4619 13.3384 20.4951 13.853 20.5034 14.3926C20.5698 15.3472 20.7192 16.5259 21.2671 17.0986C21.981 17.8374 22.8276 18.5845 22.8276 19.4146C22.8276 20.0205 22.3545 20.4189 21.5742 20.4189H8.41748ZM14.9917 23.7476C13.5889 23.7476 12.5596 22.7183 12.4517 21.5562H17.54C17.4321 22.7183 16.4028 23.7476 14.9917 23.7476Z" fill="white"/>
</svg>
