<svg width="30" height="30" viewBox="0 0 30 30" fill="none" xmlns="http://www.w3.org/2000/svg">
<rect width="30" height="30" rx="7" fill="#5856D6"/>
<path d="M11.4888 22.6353C10.6504 22.6353 10.1357 22.1621 10.1357 21.2739V21.1079C10.1357 19.1074 12.2607 16.9824 13.4146 15.8286C13.9873 15.2642 13.9458 14.6831 13.4146 14.1602C12.2607 13.0146 10.1357 10.8979 10.1357 8.88086V8.73975C10.1357 7.85156 10.6504 7.37012 11.4888 7.37012H18.5112C19.3496 7.37012 19.8643 7.85156 19.8643 8.73975V8.88086C19.8643 10.8979 17.7476 13.0146 16.5854 14.1602C16.0625 14.6831 16.021 15.2642 16.5854 15.8286C17.7476 16.9824 19.8643 19.1074 19.8643 21.1079V21.2739C19.8643 22.1621 19.3496 22.6353 18.5112 22.6353H11.4888ZM12.1279 21.5063H17.8721C18.229 21.5063 18.312 21.0913 18.0713 20.8672L15.4233 18.3438C15.3237 18.2524 15.2905 18.2109 15.2905 18.0781V14.4009C15.2905 14.019 15.3569 13.8281 15.6392 13.5874C16.2036 13.1143 16.9839 12.4336 17.4902 11.894C17.7061 11.6782 17.5898 11.4126 17.3325 11.4126H12.6675C12.4102 11.4126 12.2939 11.6782 12.5098 11.894C13.0244 12.4336 13.8047 13.1143 14.3608 13.5874C14.6431 13.8281 14.7178 14.019 14.7178 14.4009V18.0781C14.7178 18.2109 14.6763 18.2524 14.5767 18.3438L11.9287 20.8672C11.688 21.0913 11.771 21.5063 12.1279 21.5063Z" fill="white"/>
</svg>
